<svg id="Слой_1" data-name="Слой 1" xmlns="http://www.w3.org/2000/svg" viewBox="0 0 1015.88 550.19"><defs><style>.cls-1{fill:#c2d6ff;}.cls-2{fill:#4b9296;}.cls-3{fill:#ea7373;}.cls-4{fill:#e6f7f0;}.cls-5{fill:#542360;}.cls-6{fill:#432c47;}.cls-7{fill:#7fd3d3;}.cls-8{fill:#1b2b80;}.cls-9{fill:#757ad8;}.cls-10{fill:#18287d;}.cls-11{fill:#1e3340;}.cls-12{fill:#fc7575;}.cls-13{fill:#fff;}.cls-14{fill:#e3e4ff;}.cls-15{fill:#fd5e5a;}.cls-16{fill:#0f1d5b;}.cls-17{fill:#b4d2d9;}.cls-18{fill:#749cfe;}.cls-19{fill:#6265a8;}.cls-20{fill:#f98a8a;}.cls-21{fill:#480736;}.cls-22{fill:#c5c6fe;}.cls-23{fill:#5b6d7e;}.cls-24{fill:#75b8bf;}.cls-25{fill:#cae9ef;}</style></defs><title>doctor_with_patient</title><path class="cls-1" d="M1019.59,541.17c0,8-227.41,14.45-507.94,14.45S3.71,549.15,3.71,541.17s227.42-14.46,507.94-14.46S1019.59,533.18,1019.59,541.17Z" transform="translate(-3.71 -8.67)"/><path class="cls-2" d="M679.28,130s-13,73.1-28.49,75.58-32.49,14.78-32.49,14.78l12.84,9.92s38,4.75,45.05,1.91S679.28,130,679.28,130Z" transform="translate(-3.71 -8.67)"/><path class="cls-3" d="M248.57,190.07c-16-27.13-27.69-35.48-27.69-35.48s-7.72,42.91,8,55,21.29,39.09,21.29,39.09-9.47,6.89-7.92,13.38c.08.36,4.75,6.39,9.61,4.61,3.68-1.35,7.85-5.21,13.09-13.71C264.92,253,264.56,217.2,248.57,190.07Z" transform="translate(-3.71 -8.67)"/><path class="cls-4" d="M749.83,132.37c-11.85-21.48-39.66-28.56-64.1-16L681.65,146,686,289.08c22.85,1.91,53.18,8.8,76,16.65C762.4,287.16,760.86,152.36,749.83,132.37Z" transform="translate(-3.71 -8.67)"/><rect class="cls-5" x="728.69" y="348.79" width="8.4" height="140.01"/><polygon class="cls-5" points="669.02 524.05 731.08 489.38 731.08 524.05 735.53 524.05 735.53 489.8 799.87 524.05 806.71 524.05 736.56 486.71 735.11 487.76 731.08 487.76 731.08 488.05 729.18 486.73 662.37 524.05 669.02 524.05"/><path class="cls-5" d="M733.2,475.8h.21a7,7,0,0,1,7,7v8.12a0,0,0,0,1,0,0H726.22a0,0,0,0,1,0,0v-8.12A7,7,0,0,1,733.2,475.8Z"/><path class="cls-6" d="M680.53,509.53c0,1-1,26.39-1,26.39H628.31s36.34-17.09,38.17-21-.63-10-.63-10l14.68-1.76Z" transform="translate(-3.71 -8.67)"/><path class="cls-7" d="M670.05,161c0,22.53,7.68,125.08,8.45,135.23,2.49.1,5,.29,7.47.5l-.56-155.25.46-25.11C682.13,120.06,670.05,140.89,670.05,161Z" transform="translate(-3.71 -8.67)"/><path class="cls-6" d="M742,318.58l-56-29.5L581.09,331.87c-8.15,2.89-11.55,12-7.08,19.1L665.7,511.61l20-2.5L598.63,359Z" transform="translate(-3.71 -8.67)"/><path class="cls-8" d="M651.5,335.79s-3.38,8.61-.71,13.89,39.41,23.06,39.41,23.06l12.41-15.84Z" transform="translate(-3.71 -8.67)"/><path class="cls-9" d="M845.1,248.85c-5.55-18.33-13.89-36.67-40.55-31.11S767.88,209.4,754,214.4s-12.78,68.89-28.89,85-91.94,25.83-70.55,47.22c0,0,35,20,41.11,20s80-10,88.32-10S850.66,267.18,845.1,248.85Zm-41.66,52.77c-17.22,17.22-28.89,23.33-48.33,15s7.22-72.77,7.22-72.77c16.11-8.34,5-1.11,20.79,3.33s22.54-6.67,30.32,1.11S820.66,284.4,803.44,301.62Z" transform="translate(-3.71 -8.67)"/><path class="cls-8" d="M838.7,232.57S840.1,255,821.77,290,789,348.84,767.88,348.84,691.78,360.51,689,369.4s16.67-2.78,31.66-2.78,46.11-2.22,63.33-10S869.52,254.07,838.7,232.57Z" transform="translate(-3.71 -8.67)"/><path class="cls-10" d="M686,289.08c0,.52,5.53,10.63,5.53,10.63L584.19,348.06S652.37,511,645,518.27s-37.8,20.28-37.8,20.28h51.11l.74-23.17h3.7l-32.59-155,118-26.08L762,307.5s0-.79,0-2.14C736.66,296.85,711.32,290,686,289.08Z" transform="translate(-3.71 -8.67)"/><rect class="cls-5" x="440.85" y="257.4" width="164.07" height="7.04"/><polygon class="cls-11" points="419.74 178.52 444.19 257.4 553.76 257.4 524.99 175.27 419.74 178.52"/><path class="cls-12" d="M708.44,65s10.56,33.88,9.17,50.55A102,102,0,0,1,700.84,128,10.14,10.14,0,0,1,686,120.59c-.05-.39,0-.78,0-1.19l-.84-31.1Z" transform="translate(-3.71 -8.67)"/><polygon class="cls-13" points="681.4 110.44 687.39 119.3 685.92 135.09 679.88 133.5 681.4 110.44"/><polygon class="cls-14" points="714.02 100.3 687.39 119.3 685.92 135.09 711.92 123.29 714.02 100.3"/><path class="cls-15" d="M708.44,65,685.11,88.3l.58,21.47c10.81-.46,20.91-15.71,22.08-33.81a47.26,47.26,0,0,1,1.38-8.61C708.71,65.83,708.44,65,708.44,65Z" transform="translate(-3.71 -8.67)"/><path class="cls-12" d="M665.7,33.3a5.92,5.92,0,0,0-1.09,1.85c-1.67,4-3.07,12.89-.33,23.15,3.33,12.5,9.16,38.89,19.44,38.89s24-13.06,25.14-28.61,8.19-23.33,2.08-35.28S665.7,33.3,665.7,33.3Z" transform="translate(-3.71 -8.67)"/><path class="cls-15" d="M710.94,33.3c-6.11-11.94-45.24,0-45.24,0a5.92,5.92,0,0,0-1.09,1.85c-1.67,4-3.07,12.89-.33,23.15.44,1.67.93,3.58,1.47,5.65,4.66-3.21,8-9.16,11-16.28.51-.6.75-5.31,9.7-8.73,1.86,4.08,4,3.81,8.9,13,.33,18.56,9,21.27,12.69,21.57a30.74,30.74,0,0,0,.77-4.89C710,53,717.05,45.25,710.94,33.3Z" transform="translate(-3.71 -8.67)"/><path class="cls-16" d="M699.83,50.8s-3.61-7.22-7.22-10.83-2.5-6.67-2.5-6.67-13,2.22-16.76,11.11-8.28,22-22.56,16.11S639,36.08,642.33,36.08s6.39-2.78,6.39-2.78,11.95-16.94,18.34-16.94.83-5.83,11.66-7.5,19.45,8.05,19.45,8.05,4.72-5.27,13.05,0S715.7,42.75,712.77,50s-3.14,19-3.14,19S699.83,71.08,699.83,50.8Z" transform="translate(-3.71 -8.67)"/><path class="cls-12" d="M705.59,47.37a4.38,4.38,0,0,0-8.05-.77c-1.62,2.81-2.57,6.28.07,8.92,5.28,5.28,10-.55,8.33-6.94C705.83,48.15,705.71,47.75,705.59,47.37Z" transform="translate(-3.71 -8.67)"/><path class="cls-17" d="M761,136.32c-10.32-15-28.52-28.28-43.27-26.55L696,175c.18,28.81-11.13,167.93-10.55,179.63,19.4,1.16,62.72-3.94,81.86-15.11C767.57,317.71,775.11,156.85,761,136.32Z" transform="translate(-3.71 -8.67)"/><polygon class="cls-6" points="325.09 524.05 361.92 270.26 353.13 268.99 316.1 524.05 325.09 524.05"/><polygon class="cls-6" points="707.55 524.05 670.53 268.99 661.73 270.26 698.57 524.05 707.55 524.05"/><rect class="cls-16" x="330.86" y="264.44" width="354.16" height="10.37"/><path class="cls-15" d="M696.5,51.77c.12-1.53,1.81-6,4.23-4.44s4.39,7,.39,8.12S696.38,53.25,696.5,51.77Z" transform="translate(-3.71 -8.67)"/><path class="cls-10" d="M678.72,78.11h-5.83V63.86a.56.56,0,1,1,1.11,0V77h4.72a.56.56,0,0,1,.56.56A.55.55,0,0,1,678.72,78.11Z" transform="translate(-3.71 -8.67)"/><path class="cls-10" d="M682.8,62.05a2.44,2.44,0,1,1-2.4-2.92A2.7,2.7,0,0,1,682.8,62.05Z" transform="translate(-3.71 -8.67)"/><path class="cls-10" d="M670.57,63.76c0,1.49-.91,2.69-2,2.69s-2-1.2-2-2.69.91-2.68,2-2.68S670.57,62.28,670.57,63.76Z" transform="translate(-3.71 -8.67)"/><path class="cls-13" d="M679.25,84.71a8.87,8.87,0,0,1-2.08-.23.56.56,0,0,1-.37-.69.58.58,0,0,1,.69-.38c.23.09,5.62,1.56,10.13-4.34a.56.56,0,0,1,.78-.1.55.55,0,0,1,.1.78C685.28,84,681.53,84.71,679.25,84.71Z" transform="translate(-3.71 -8.67)"/><path class="cls-10" d="M676.08,54.88s2.73-2.78,6.07-2.78S688.06,56,688.06,56s-2.5-3.15-5.36-2.6-6.62,3.34-6.62,3.34Z" transform="translate(-3.71 -8.67)"/><path class="cls-18" d="M212.06,350c-2.56,0-46.47,12.19-44.05-14.23s-.48-52.77-14.85-58.14c-31-11.58-70.48.15-70.48.15l41.89,75.86L152.64,397l40.53-3.4,80.63,9.48S266.35,349.69,212.06,350Z" transform="translate(-3.71 -8.67)"/><polygon class="cls-10" points="154.4 382.55 142.25 382.62 125.65 545.97 127.9 545.96 154.4 382.55"/><polygon class="cls-10" points="232.19 382.07 244.34 382 262.93 545.13 260.69 545.15 232.19 382.07"/><path class="cls-19" d="M82.68,278.06c.06,10.07,39.41,103.09,44.88,114.72,13.74,29.19,70.31,7.57,85.35,10.83s45.67,15.94,59.6,8-2.25-29.62-35.39-29.42-58.22,16.67-78-4.45-17.15-63.17-28.7-88.26S82.68,278.06,82.68,278.06Z" transform="translate(-3.71 -8.67)"/><path class="cls-3" d="M265.09,339,328,357.75a12.46,12.46,0,0,1,8.89,12.87c-1,13.37-3.58,37.29-10.31,54.37-9.73,24.72-29.23,75.32-29.59,89s4,35.9,4,35.9l-21.5-.57s1.93-13.7,2.19-23.66,1.65-22.52,1.86-30.39c.18-7.15,11.83-80.79,10.61-112-.13-3.14-42.32-19.85-42.32-19.85Z" transform="translate(-3.71 -8.67)"/><path class="cls-20" d="M220.31,325.76l69.52,50.51c7.75,6.54,10.23,25.24,6.39,34.62-6,14.56-15.29,35.72-23.9,48.35-14.09,20.7-37.84,53.58-37.84,53.58s-7.4,23.15-2.54,28.27a72.78,72.78,0,0,0,11,9.21s-21.05-.45-24.62-4.22-1.22-19.17-1.08-24.41a19.38,19.38,0,0,1,2.48-9s2.11-8.4,5.62-19.26c5.1-15.75,7.57-40.41,14.15-55.18,11.11-25,16.77-24.15,16.77-24.15l-67.57-44.69Z" transform="translate(-3.71 -8.67)"/><path class="cls-21" d="M208.92,150.86s13.86.46,21.28,12.89c28,46.91-5.11,132.29,7.84,146.09,14.79,15.75,90.66,38,96.71,52.81,0,0-35.23-5.8-53.8,11.81a96.3,96.3,0,0,0-24.66,39.64s-73-41.59-91.59-49c-24-9.55-3.94-112.81,1.77-150.11s-2.84-56.62,11.17-62.05S208.92,150.86,208.92,150.86Z" transform="translate(-3.71 -8.67)"/><path class="cls-16" d="M301,549.84s-7,9.14-11.67,9-9.83-9.59-9.83-9.59l1.45-12.44s3.33,12.57,8.63,12.7,9.33-12.23,9.33-12.23Z" transform="translate(-3.71 -8.67)"/><path class="cls-16" d="M221.06,540.54l10.88.55,11,9.21s-19.4-.12-23.94-2-4.66-11.54-3.35-16-2-9-3.26-10.35,7.33-9.26,7.33-9.26Z" transform="translate(-3.71 -8.67)"/><path class="cls-22" d="M210.13,142.64a23.63,23.63,0,0,0,23,2c13.08-5.65,30.05-18.08,20-39.53s-28.8-33.92-28.8-33.92Z" transform="translate(-3.71 -8.67)"/><path class="cls-20" d="M216.75,126.6s-3.3,17.86.18,29.11-19.3,17.43-24.1,5.66S197.05,122,197.05,122Z" transform="translate(-3.71 -8.67)"/><path class="cls-3" d="M197.05,122l19.7,4.6a102.21,102.21,0,0,0-1.23,10.57,15.42,15.42,0,0,1-1.59.44c-6.79,1.56-14.23-1.74-19.32-6.88C195.88,125.59,197.05,122,197.05,122Z" transform="translate(-3.71 -8.67)"/><path class="cls-20" d="M224.28,71.21s8.45,8.87,6.94,19.89.31,17.31.33,21.25-5.87,16-17.66,18.46-25.49-8.23-25.55-17.94,1.54-26.63,9-34.15S224.28,71.21,224.28,71.21Z" transform="translate(-3.71 -8.67)"/><path class="cls-14" d="M224.28,71.21s-25.85,18.85-31.81,30.13,8.46,27.52,7.19,33.82-22.2,20.4-30.25,12.45-2-20.45-2-20.45-15.22.1-14.24-12.5S164.61,85,178.68,77C208.86,59.81,224.28,71.21,224.28,71.21Z" transform="translate(-3.71 -8.67)"/><path class="cls-22" d="M153.34,106.82c11-34.75,53.07-47.49,70.94-35.61-18.36-9.43-57.53,4.44-68.22,36.46-1.31,4.43-2.47,9.39-.31,13s7.2,5.3,11.69,5.57l1.36.08c-.06.63-7.17,12.51.61,21.25-5.45-4.78-5.66-12.92-3.24-19.61-4.6-.28-9.56-1.64-12.54-6S151.91,111.86,153.34,106.82Z" transform="translate(-3.71 -8.67)"/><path class="cls-20" d="M196.9,98.26s-.3-6.11-6.38-4.3-3.45,11.85.52,13S196.9,98.26,196.9,98.26Z" transform="translate(-3.71 -8.67)"/><path class="cls-10" d="M211.39,116.59c-4.65-1.06-6.6-3.07-6-2.71a.39.39,0,0,0-.54.56c.62.25,2.64,3.35,13.06,3.73a.4.4,0,0,0,0-.79A51.42,51.42,0,0,1,211.39,116.59Z" transform="translate(-3.71 -8.67)"/><path class="cls-10" d="M212.14,120.16a.39.39,0,0,0,.41-.35.4.4,0,0,0-.36-.43c-.85-.09-3.25-.49-4-1.26s-2.24,1.38,3.9,2Z" transform="translate(-3.71 -8.67)"/><path class="cls-10" d="M217.22,108.8c-.23-1.28-1.13-3.53-2.45-3.24a14.24,14.24,0,0,0-3.71,1.65c1.36-.15,2.6-.73,3.86-.89C215.5,105.91,216.12,107.31,217.22,108.8Z" transform="translate(-3.71 -8.67)"/><path class="cls-10" d="M222.93,103a1.84,1.84,0,0,0,3.65.1,1.84,1.84,0,0,0-3.65-.1Z" transform="translate(-3.71 -8.67)"/><path class="cls-10" d="M209.2,101.36a1.84,1.84,0,1,1-1.45-2A1.74,1.74,0,0,1,209.2,101.36Z" transform="translate(-3.71 -8.67)"/><path class="cls-22" d="M228.39,94.57c2.65.51,2.3,2.28,2.3,2.28a19.74,19.74,0,0,1-2.6-1.22l-6.66-.21C222.06,95.21,225.91,94.09,228.39,94.57Z" transform="translate(-3.71 -8.67)"/><path class="cls-22" d="M207.51,91.36c-2.69-.3-2.88,1.49-2.88,1.49a18.4,18.4,0,0,0,2.84-.38l6.42,1.79C213.35,93.87,210,91.65,207.51,91.36Z" transform="translate(-3.71 -8.67)"/><path class="cls-23" d="M259.68,289h-3.54c0-17.29-7.93-31.35-17.68-31.35S220.79,271.71,220.79,289h-3.54c0-19.57,9.32-34.9,21.21-34.9S259.68,269.43,259.68,289Z" transform="translate(-3.71 -8.67)"/><polygon class="cls-24" points="199.6 274 264.97 274.17 271.04 330.62 187.81 330.62 199.6 274"/><polygon class="cls-23" points="208.12 274 210.54 330.62 187.81 330.62 199.6 274 208.12 274"/><polygon class="cls-23" points="217.07 280.34 222.39 323.63 268.43 324.81 229.42 318.9 217.07 280.34"/><polygon class="cls-11" points="627.82 215.55 563.99 169.95 630.27 163.93 680.39 216.8 627.82 215.55"/><path class="cls-20" d="M665.14,205.58s6.8,1.52,9.32,4.21c3.2,3.44,10.82,9,14,9s16.83,1.34,16.83,1.34l2.28,15s-50.84-11.64-53.24-14.21,11.93,1.91,11.93.76-17.25-2.42-16.36-5.3,15.91,3.88,17.25,2.45S649,215,649,212s19.38,4.41,19.38,4.41.36-1.55-4.89-4-10.33-4.46-9.17-5.71,14.57,6.65,16.34,4.75Z" transform="translate(-3.71 -8.67)"/><path class="cls-25" d="M732.4,123s-3,12.52-1.57,32,4,49.33-.15,59.06-34.44,0-34.44,0v23s43.94,17.85,56.67,12,17.91-56.18,16.64-80.81C767.66,131.67,740.52,105.33,732.4,123Z" transform="translate(-3.71 -8.67)"/><path class="cls-12" d="M622.19,209.25a33.52,33.52,0,0,0-3.84,5.48c-2.43,4,1.47,8,2.22,8.78a32.18,32.18,0,0,0,5.88,4.8,12.94,12.94,0,0,0,4.69,2c2.64.54,10.69-9.42,10-10.34-.45-.62-1-1.1-1.73-.89s-8.6,5.74-8.6,5.74,7.66-7.87,7.4-10.15-1.66-2-2.31-1.37-9.9,8-9.9,8,7.06-9.36,6.89-10.85-2.12-2.49-5.26,1.28a60.68,60.68,0,0,1-6,5.6s4.31-7,4-9.27S622.19,209.25,622.19,209.25Z" transform="translate(-3.71 -8.67)"/><path class="cls-20" d="M174.58,154.59s-17.06,4.62-38.87,32.9c-16.32,21.15-32.86,52-33.24,66.23s70.14,22.51,93.91,13c0,0,10.52,9.72,20.87,10s8.25-2.73,11.08-10.52-6.46-13-14.19-15.18c-2.32-.64-2-.92-12.34.9s-56,4.69-63.25-3,20.11-38.2,25.86-43.66S186.67,176.57,174.58,154.59Z" transform="translate(-3.71 -8.67)"/><path class="cls-20" d="M246.47,250.4s-6.94.83-9.22,3.79c-1.61,2.08-3.17,7.2-1.46,10.42s6.11,2.11,7.57,3.57,2.28,1.93,5,2.46,3.61,1.9,5.18,1.9,3.07-3.58,3.71-7.93a14.32,14.32,0,0,0-1.18-7.89S252.64,250.4,246.47,250.4Z" transform="translate(-3.71 -8.67)"/><path class="cls-2" d="M717.43,106.2,696,175s15.64-6.16,20.3-15.59,0-12.42,0-12.42,15.37-28.27,15.37-33S717.43,106.2,717.43,106.2Z" transform="translate(-3.71 -8.67)"/><path class="cls-2" d="M685.53,174.87s-11.77-23-8.75-26,3.7-2.81,3.7-2.81-3.62-16.28-2.47-22.27,7.75-11.51,7.75-11.51l.21,6.81Z" transform="translate(-3.71 -8.67)"/><path class="cls-3" d="M195.74,100.34s-4.44-7.19-6.08-3.49.26,7.82,3,7A4.29,4.29,0,0,0,195.74,100.34Z" transform="translate(-3.71 -8.67)"/></svg>