<svg id="Слой_1" data-name="Слой 1" xmlns="http://www.w3.org/2000/svg" viewBox="0 0 766.34 638.9"><defs><style>.cls-1{fill:#c2d6ff;}.cls-2{fill:#d3c4ba;}.cls-3{fill:#1e3340;}.cls-4{fill:#c9bbb1;}.cls-5{fill:#0c0c0d;}.cls-6{fill:#b4d2d9;}.cls-7{fill:#f98a8a;}.cls-8{fill:#ea7373;}.cls-9{fill:#d86666;}.cls-10{fill:#e3e4ff;}.cls-11{fill:#c5c6fe;}.cls-12{fill:#18287d;}.cls-13{fill:#edd8ca;}.cls-14{fill:#fbe9dc;}.cls-15{fill:#f9eadc;}.cls-16{fill:#fdeee7;}.cls-17{fill:#fff4f0;}.cls-18{fill:#0f1d5b;}.cls-19{fill:#1a2a63;}.cls-20{fill:#42858c;}.cls-21{fill:#fc7575;}.cls-22{fill:#fd5e5a;}.cls-23{fill:#1b2b80;}.cls-24{fill:#0b1742;}.cls-25{fill:#2846a6;}.cls-26{fill:#fff;}.cls-27{fill:#22346d;}</style></defs><title>doctors</title><ellipse class="cls-1" cx="383.17" cy="627.1" rx="383.17" ry="11.8"/><path class="cls-2" d="M579,178.68s-49.56,17.17-52.54,48l13.22,4.68,45.72-31.1Z" transform="translate(-6.51 -4)"/><path class="cls-3" d="M231.23,201h-.11a1.27,1.27,0,0,1-1.17-1.38c2.33-28.47,1.17-38.42,1.18-39.93-.61-13.27-1.45-31.45-14.89-37.41s-41.62-11.29-44.67,2.92c-2.08,9.7,6.54,30.31,10.27,38a1.28,1.28,0,0,1-2.3,1.12c-4.48-9.18-12.64-29.54-10.48-39.63,3.52-16.36,32.73-11.61,48.22-4.73,14.83,6.58,15.74,25.15,16.47,41,.63,13.2-.23,26.5-1.25,38.91A1.29,1.29,0,0,1,231.23,201Z" transform="translate(-6.51 -4)"/><polygon class="cls-4" points="115.6 411.81 249.65 419.19 234.9 280.35 161.11 280.35 115.6 411.81"/><path class="cls-5" d="M184.1,372.33s21.59,220.7,27,244.26v14.87h41.39s-2.5-5-7.17-5-16.51-5.38-19.75-9.1,2-308.73,2-308.73H176.18Z" transform="translate(-6.51 -4)"/><polygon class="cls-2" points="166.6 113.18 170.79 128.44 219.64 123.25 209.41 110.19 166.6 113.18"/><path class="cls-3" d="M219,327.65l-7.19,35.42s-57.57,191.82-55.06,258.86c0,0,4.85,7.94,21.95,12.65.92.25,1.8,3.37,1.8,3.37H135.88l2.52-13.49s1.44-228.09,1.44-254.65,7.2-61.13,7.2-61.13h74.84Z" transform="translate(-6.51 -4)"/><path class="cls-6" d="M251.74,260.89c0-65.31-20.43-130.28-35.71-138.54,0,0-17.76-1.14-26.89-1.43-13.64-.43-34.62,6-45.94,42-10.3,32.78-7.2,132.44-5.62,181.26,38.51,0,66.67-1.19,104-1.19C242.2,331.62,251.74,281.42,251.74,260.89Z" transform="translate(-6.51 -4)"/><path class="cls-7" d="M191.51,41.35c0-10.37,10.89-16.35,21.26-16,10.16.39,20.08.51,23.6,6.74,8.47,15-4.63,43.14-4.63,43.14s-6.93,13.1-20.8,13.1C201.45,88.37,191.59,60.76,191.51,41.35Z" transform="translate(-6.51 -4)"/><path class="cls-8" d="M181.66,70.34s-3.74,47.69-2.4,57.71,29,12.52,34.38,4.82,0-40.65,0-40.65Z" transform="translate(-6.51 -4)"/><path class="cls-9" d="M215.83,112.2c-.59-10.16-2.19-20-2.19-20l-32-21.88s-1.17,13.43-1.87,28a6.81,6.81,0,0,0,1.87-1.16c3.66-4,7.9-17.93,7.9-17.93s1.95,14.13,1.95,21.94c0,5,9,8.26,17.8,10a23.16,23.16,0,0,0,3.15-6.39,24.81,24.81,0,0,1-1.57,6.68C212.59,111.78,214.25,112,215.83,112.2Z" transform="translate(-6.51 -4)"/><path class="cls-10" d="M228.18,94.34a19.28,19.28,0,0,0,4.2,6.09,21.51,21.51,0,0,0,5-13c0-7.51-4.67-11.59-4.67-14.36,0,0-1.63,6.36-10.49,7.71s-16-5.39-19.36-8.76-7.7-6.61-7.7-12.14-.62-27.11-.62-27.11-.92-3.7-10.56,1.11-8.47,8.48-10,15.8.58,12.71-5.39,14.63S156,75.08,160.67,84.52s17.33,10.59,21,6.93,7.9-16.37,7.9-16.37,1.95,12.91,1.95,20c0,4.55,9,7.55,17.8,9.13a20.4,20.4,0,0,0,3.15-5.83,21,21,0,0,1-1.57,6.1,78.45,78.45,0,0,0,11.61,1.07,11.82,11.82,0,0,0,7.24-2.6A19,19,0,0,1,228.18,94.34Z" transform="translate(-6.51 -4)"/><path class="cls-11" d="M183,33.5c-8.86,4-8.9,8.44-10.19,14.92-2.11,9.39.41,12.8-5.34,14.63-13,5.43-13.48,25.47,2.28,30.13,4,1,8.8,1.22,11.87-1.73-3.41,2.31-7.84,1.64-11.39.3-12.94-5-12.48-21.7-1.66-25.82,7.51-2,5.24-8.84,6.85-17,1.16-6.07,0-9.48,8.28-14.08,2.91-1.71,8.9-4.91,10.79-2.09C193,29.43,186.37,32,183,33.5Z" transform="translate(-6.51 -4)"/><path class="cls-7" d="M199.38,53.32a7.82,7.82,0,0,0-7.87-2.7c-5,1.15-1.17,14.06,3.25,14.06S199.38,53.32,199.38,53.32Z" transform="translate(-6.51 -4)"/><path class="cls-12" d="M228.08,50.4c-.05,15-.75,13.47-1.6,20.78-1.63-.34-3.29-.58-4.94-.84a53.8,53.8,0,0,0,5.77,2.13C227.54,69.85,231.07,62.68,228.08,50.4Z" transform="translate(-6.51 -4)"/><path class="cls-10" d="M213.16,48s2.31-1,6.26,0a34,34,0,0,1,5.2,1.54s.48-4.05-2-4.05-3.27,1.83-5.1,0S213.16,48,213.16,48Z" transform="translate(-6.51 -4)"/><path class="cls-10" d="M239.94,47.61a6.06,6.06,0,0,0-4.63.16,20.73,20.73,0,0,0-3.8,1.67s-.49-4,1.36-4.09,2.49,1.74,3.78-.13S239.94,47.61,239.94,47.61Z" transform="translate(-6.51 -4)"/><path class="cls-12" d="M219.8,51.67a1.91,1.91,0,1,1-1.88-2.23A2.07,2.07,0,0,1,219.8,51.67Z" transform="translate(-6.51 -4)"/><path class="cls-12" d="M236.75,52.63a1.91,1.91,0,1,1-1.88-2.23A2.07,2.07,0,0,1,236.75,52.63Z" transform="translate(-6.51 -4)"/><path class="cls-9" d="M195.26,54.19s-3.08-2.63-3.75-.3.92,7.25,3.1,7.55S195.26,54.19,195.26,54.19Z" transform="translate(-6.51 -4)"/><path class="cls-12" d="M226.16,77.3c-3.14,3-9.22,2.66-14.5-2.82a.77.77,0,0,1,1-1.14C214,73.8,217.79,79.46,226.16,77.3Z" transform="translate(-6.51 -4)"/><path class="cls-13" d="M197.5,199.67c.11,1-22.71-76.84-22.71-76.84A89.47,89.47,0,0,0,157,131.54c-10.17,6.28-24.22,49.65-24.22,49.65s3.45,102.6,3.45,110.41c0,4.19-7.32,67-14.08,124.21l83.31,7.38C204.16,343.42,195,177.39,197.5,199.67Z" transform="translate(-6.51 -4)"/><path class="cls-14" d="M216.92,122.35s28.5,10.68,34.82,82.47,6.33,218.37,6.33,218.37H229.28s-3.12-209.39-3.12-223.75S216.92,122.35,216.92,122.35Z" transform="translate(-6.51 -4)"/><path class="cls-8" d="M216.92,217.75l8.79-4.43s8.31-6.5,11.06-7.67,19.4,2.24,19.4,2.24l6.18,9.86s-20.74.59-24.86,4.71a50.36,50.36,0,0,1-10.59,7.46Z" transform="translate(-6.51 -4)"/><path class="cls-8" d="M205.42,220.79c-1.63,0-8.84-7.22-8.84-7.22l-6.72-15.95s-18.13-9.5-21.16-9.5S161.83,207,163,210.86s18.4,11.22,18.4,11.22l15.23,10.48Z" transform="translate(-6.51 -4)"/><path class="cls-15" d="M163.76,136.42s-7.11-11.19-27.88,9.58S110.3,269.52,153.37,272.77s97.15-40.21,97.15-40.21l-26.18-20.3s-36,24.9-48.16,12.7S184.11,156.77,163.76,136.42Z" transform="translate(-6.51 -4)"/><path class="cls-16" d="M226.16,130S249,141.21,261.8,189.87s1.65,77.5-26.1,73.38S176.18,225,176.18,225l23.2-13s19.09,10.57,33.61,7.38S236.28,137.74,226.16,130Z" transform="translate(-6.51 -4)"/><path class="cls-8" d="M179.39,182.84s6.2,3.2,7.9,7.47,3,8.27,3,8.27l-7.77-2.4a25.76,25.76,0,0,0-.5-5.47C181.42,188.28,173.74,182.84,179.39,182.84Z" transform="translate(-6.51 -4)"/><polygon class="cls-17" points="190.99 195.67 166.6 113.18 152.59 123.35 169.67 152.96 168.4 162.24 190.99 195.67"/><polygon class="cls-17" points="209.41 110.19 219.6 193.62 223.63 151.91 219.64 147.38 219.19 122.06 209.41 110.19"/><path class="cls-18" d="M630.21,358S603.56,586.87,596.9,611.3v15.43H545.81s3.09-5.14,8.86-5.14S575,616,579,612.16,576.52,292,576.52,292H640Z" transform="translate(-6.51 -4)"/><polygon class="cls-2" points="631.2 93.78 632.42 112.91 587.1 107.76 597.69 94.78 631.2 93.78"/><path class="cls-19" d="M600.53,311.82l7.37,37s59,200.55,56.4,270.64c0,0-5,8.31-22.49,13.22-.94.27-1.84,3.53-1.84,3.53h45.7l-2.58-14.11s-1.47-238.46-1.47-266.23S674.25,292,674.25,292H597.58Z" transform="translate(-6.51 -4)"/><path class="cls-20" d="M569.88,244.51c0-64.88,19-129.42,33.12-137.63,0,0,16.49-1.13,25-1.41,12.65-.43,32.11,6,42.61,41.75,6.62,22.56,3.5,77,2.79,124.47-.32,21,2.88,40.7,2.43,55.6-35.72,0-61.85-1.19-96.52-1.19C578.73,314.78,569.88,264.91,569.88,244.51Z" transform="translate(-6.51 -4)"/><path class="cls-14" d="M620.2,183.7c-.1,1,21.07-76.33,21.07-76.33A79.91,79.91,0,0,1,657.81,116c9.43,6.24,22.47,49.33,22.47,49.33s-3.2,101.92-3.2,109.68c0,4.17,6.79,66.59,13.06,123.39l-77.28,7.33C614,326.5,620.2,183.7,620.2,183.7Z" transform="translate(-6.51 -4)"/><path class="cls-13" d="M603,106.88s-27.26,10.62-33.12,81.94S564,405.74,564,405.74h26.71s2.89-208,2.89-222.27S603,106.88,603,106.88Z" transform="translate(-6.51 -4)"/><polygon class="cls-17" points="613.74 179.49 631.2 93.78 649.3 107.86 633.46 137.27 634.64 146.49 613.74 179.49"/><polygon class="cls-17" points="597.69 94.78 587.14 177.66 583.39 136.22 587.1 131.73 587.1 107.76 597.69 94.78"/><path class="cls-21" d="M624.51,62.25s9,31.05,7.84,46.32c0,0-19.18,19.26-26.82,13.83l-1-38.77Z" transform="translate(-6.51 -4)"/><path class="cls-22" d="M624.51,62.25l-20,21.38.5,19.67c9.24-.42,17.88-14.39,18.89-31a45.38,45.38,0,0,1,1.18-7.9C624.74,63,624.51,62.25,624.51,62.25Z" transform="translate(-6.51 -4)"/><path class="cls-21" d="M587.94,33.24a5.66,5.66,0,0,0-.94,1.69c-1.43,3.62-2.62,11.81-.28,21.21,2.85,11.46,7.84,35.63,16.64,35.63s20.56-12,21.51-26.21,7-21.38,1.78-32.32S587.94,33.24,587.94,33.24Z" transform="translate(-6.51 -4)"/><path class="cls-22" d="M626.65,33.24c-5.23-11-38.71,0-38.71,0a5.66,5.66,0,0,0-.94,1.69c-1.43,3.62-2.62,11.81-.28,21.21.38,1.53.8,3.28,1.26,5.18,4-2.94,6.89-8.39,9.46-14.92.43-.55.63-4.87,8.29-8,1.59,3.74,3.44,3.49,7.62,11.88.28,17,7.66,19.49,10.86,19.76a29,29,0,0,0,.66-4.48C625.82,51.31,631.88,44.18,626.65,33.24Z" transform="translate(-6.51 -4)"/><path class="cls-23" d="M617.14,49.27s-3.09-6.62-6.18-9.92-2.14-6.11-2.14-6.11-11.09,2-14.34,10.18-7.08,20.1-19.31,14.76-10.08-22.4-7.22-22.4,5.46-2.54,5.46-2.54,10.22-15.53,15.69-15.53.71-5.34,10-6.87,16.64,7.38,16.64,7.38,4-4.83,11.17,0,3.83,23.67,1.32,30.29-2.68,17.43-2.68,17.43S617.14,67.85,617.14,49.27Z" transform="translate(-6.51 -4)"/><path class="cls-21" d="M622.07,46.13a3.67,3.67,0,0,0-6.89-.71c-1.38,2.58-2.2,5.76.06,8.18,4.52,4.83,8.56-.51,7.13-6.37C622.28,46.84,622.18,46.47,622.07,46.13Z" transform="translate(-6.51 -4)"/><path class="cls-22" d="M614.29,50.16c.11-1.4,1.55-5.47,3.63-4.07s3.75,6.43.33,7.44S614.19,51.51,614.29,50.16Z" transform="translate(-6.51 -4)"/><path class="cls-12" d="M599.08,74.3h-5V61.23a.48.48,0,1,1,.95,0V73.28h4a.49.49,0,0,1,.48.51A.5.5,0,0,1,599.08,74.3Z" transform="translate(-6.51 -4)"/><ellipse class="cls-12" cx="594" cy="55.58" rx="2.05" ry="2.67"/><path class="cls-12" d="M592.11,61.15c0,1.36-.78,2.46-1.74,2.46s-1.75-1.1-1.75-2.46.78-2.46,1.75-2.46S592.11,59.79,592.11,61.15Z" transform="translate(-6.51 -4)"/><path class="cls-12" d="M602.46,84a6.6,6.6,0,0,1-1.67-.2.5.5,0,0,1-.3-.6.46.46,0,0,1,.56-.32c.18.07,4.51,1.33,8.13-3.73a.42.42,0,0,1,.63-.09.51.51,0,0,1,.08.67C607.3,83.37,604.29,84,602.46,84Z" transform="translate(-6.51 -4)"/><path class="cls-12" d="M596.82,53s2.34-2.54,5.19-2.54S607.07,54,607.07,54s-2.14-2.88-4.59-2.37-5.66,3.05-5.66,3.05Z" transform="translate(-6.51 -4)"/><path class="cls-17" d="M622.24,312.9h40.44a0,0,0,0,1,0,0v30.88a16.78,16.78,0,0,1-16.78,16.78H639a16.78,16.78,0,0,1-16.78-16.78V312.9A0,0,0,0,1,622.24,312.9Z"/><rect class="cls-17" x="662.68" y="255.55" width="10.54" height="23.15"/><path class="cls-21" d="M650.44,188.58l0-.06C650,188.48,650,188.51,650.44,188.58Z" transform="translate(-6.51 -4)"/><polygon class="cls-3" points="533.92 226.73 466.56 178.61 536.5 172.26 589.38 228.05 533.92 226.73"/><path class="cls-21" d="M575.89,211.06s7.17,1.61,9.83,4.45c3.38,3.62,11.42,9.52,14.79,9.52s17.76,1.4,17.76,1.4l2.41,15.82S567,230,564.5,227.26s12.59,2,12.59.8-18.2-2.56-17.26-5.6,16.79,4.1,18.19,2.59-19.13-4-19.13-7.23,20.45,4.64,20.45,4.64.37-1.63-5.16-4.24-10.9-4.71-9.68-6,15.38,7,17.24,5Z" transform="translate(-6.51 -4)"/><path class="cls-17" d="M651.44,122.89s-7.8,14.26-6.24,34.81,4.21,52.05-.15,62.32-36.35,0-36.35,0v24.31s46.37,18.84,59.8,12.67,12.15-59.24,12.15-85.26S660,104.22,651.44,122.89Z" transform="translate(-6.51 -4)"/><path class="cls-21" d="M530.57,214.94a34.81,34.81,0,0,0-4.06,5.78c-2.56,4.21,1.55,8.38,2.35,9.26a34.14,34.14,0,0,0,6.2,5.07,13.84,13.84,0,0,0,5,2.08c2.79.56,11.28-9.95,10.56-10.92-.47-.65-1.11-1.15-1.82-.93s-9.07,6.06-9.07,6.06,8.08-8.31,7.8-10.72-1.75-2.08-2.43-1.45-10.45,8.48-10.45,8.48,7.45-9.87,7.26-11.45-2.23-2.63-5.54,1.36a64.82,64.82,0,0,1-6.32,5.9s4.54-7.42,4.26-9.78S530.57,214.94,530.57,214.94Z" transform="translate(-6.51 -4)"/><polygon class="cls-4" points="388.02 121.18 423.67 119.69 422.15 219.86 379.71 222.66 388.02 121.18"/><path class="cls-21" d="M533.26,345.42a39.88,39.88,0,0,1-2.08-4.13c-1.84-4.05-3.66-5.08-5.09-4.93-.74.86-.13,2.48,2.53,8,1.23,2.56,2.91,6.07,2.73,6.76-1.68,3-4.21-2.75-5.17-5.43s-1.62-5.81-3.68-5.6c-.67.07-.29,3.9,1.09,8.44,5,16.5-.86,12.12-2.52,3.8-1.5-7.59-2-11.06-3-11-.77.67-.65,2.4,0,7.81.39,3.11.15,8.4-.52,9.24-1.56,1.37-2.14-1.45-2.15-3.05,0-.17-.38-16.56-4.16-16.74s-3.46,4.43-3.18,7.18-2.81,5.16-3.77,4.35c-1.19-1,2-4.82,1.18-9.26s-1.59-11.28-1.39-13.06c0-.05,0-.71,0-.71s-4.72-2.58-13.38-3.81c1.77-3.91,3.44-7.81,5.05-11.7,19.3,7.79,32.4,20,34.41,22.91A22.92,22.92,0,0,1,534.48,345C534.52,345.55,533.54,345.87,533.26,345.42Z" transform="translate(-6.51 -4)"/><polygon class="cls-4" points="336.47 393.75 466.56 393.75 442.93 269.94 366.65 261.58 336.47 393.75"/><path class="cls-13" d="M488,291.23c-5.62-8-9.19-35.2-9.3-36.73-1-42.28-4-88.75-12.78-101.18-13.58-19.26-20.82-6.28-27.26,28.92-1.8,9.82.56,27.56,4.9,47.16,4.78,28.85,12.67,55,18,68.27C470.23,319,494,337.05,494,337.05l11.06-24.48S493.68,299.35,488,291.23Z" transform="translate(-6.51 -4)"/><path class="cls-3" d="M450,616.81c-18,0-20.29-23.54-20.29-23.54l15.59-116.58,16.83-139.33-4.75-41.24H364.76l-.66,36.34L354.37,474l27.82,116.58s-2.28,23.54-20.29,23.54-17.57,7.25-17.57,7.25H397S394,595.31,394,592.89s-3.3-128.28-3.3-128.28l20-114.76,7.82,120.45s-.54,122.83-.54,125.25-3.07,28.5-3.07,28.5h52.71S468,616.81,450,616.81Z" transform="translate(-6.51 -4)"/><path class="cls-5" d="M458,301.54l-.62-5.42H364.76l-.09,4.75,19.44,6.47a83.1,83.1,0,0,0,48.77,1.22Z" transform="translate(-6.51 -4)"/><path class="cls-20" d="M463.81,148.3c-10.07-11.08-33.38-28.76-59.08-24.5l-38,13.65-3.87,54.76,0,108.07,95.74,1.08,9.1-105.2S473.88,159.37,463.81,148.3Z" transform="translate(-6.51 -4)"/><path class="cls-13" d="M362.89,192.21l3.87-54.76c-28.83,31.71-59.87,80.13-61.52,99-1.09,12.45,22,45.25,37.75,63.32,2.74-4.08,6.27-11.42,10.64-13.23-7.42-10.93-17-27.22-19.73-41.75C329.29,220.12,362.89,192.21,362.89,192.21Z" transform="translate(-6.51 -4)"/><path class="cls-21" d="M400.56,99.56s-.3,23.85-2.63,36c-.9,4.7,1.3,9.51,5.37,11.23a20.44,20.44,0,0,0,12,1.1c13-2.41,13.4-16.67,13.4-16.67L424.3,87.73Z" transform="translate(-6.51 -4)"/><path class="cls-22" d="M424.3,87.73,400.56,99.56s-.11,8.8-.72,18.44c6.19.29,14-3.14,22.24-13.52,1.23-1.54,2.37-3.07,3.44-4.58Z" transform="translate(-6.51 -4)"/><path class="cls-21" d="M402.09,38.44a41.72,41.72,0,0,0-11.64,18.12c-3.51,11.35-6.59,19.57-6.59,19.57l3.74,2.41s-3,15.85-.66,21.26c3.51,8.22,18.34,14.86,35.14-3.62s18.23-34.79,15.37-42.76S408.68,34.33,402.09,38.44Z" transform="translate(-6.51 -4)"/><path class="cls-24" d="M427.35,56.32a20.48,20.48,0,0,0-18.23-3.87c-10.76,2.9-14.38-1.57-12.3-3.86,0,0-9.44.24-13-8.22s-2.63-34.06,14.06-29.23,13.32,16.43,13.32,16.43,5.35-5.56,10.4-2.66,4.39,7,4.39,7,4.62,9.42,11,10.63,5.71,15.22,5.71,15.22,3.74,2.9,1.1,13-18.14,25.85-18.14,30.69c0,0-3.82-6.28-.75-16.19s3.08-15.7-.21-15.7S427.35,56.32,427.35,56.32Z" transform="translate(-6.51 -4)"/><path class="cls-21" d="M422.6,76.16s1.07-8.34,3.46-8.34,4.61.91,4,5.62-3.05,10-6.18,7.79A3.68,3.68,0,0,1,422.6,76.16Z" transform="translate(-6.51 -4)"/><path class="cls-24" d="M450.92,57.06a2.81,2.81,0,0,0-1.36-1.66c-2.07-1-4.85,1.12-6.68,2.57l-.31-.4a14.21,14.21,0,0,1,4.37-3.7,4.35,4.35,0,0,1,6.1,2.4Z" transform="translate(-6.51 -4)"/><path class="cls-24" d="M449.26,67.31a9.5,9.5,0,0,0-.08-3.6c-1.32-5.83-7.78-5.32-8.09-5.5v-.36c.18.07,9.33-1.88,10.64,7.53a10.65,10.65,0,0,1,.11,2.51Z" transform="translate(-6.51 -4)"/><path class="cls-25" d="M400.18,63.8c0,2-.82,3.72-1.84,3.72s-1.84-1.67-1.84-3.72.83-3.71,1.84-3.71S400.18,61.75,400.18,63.8Z" transform="translate(-6.51 -4)"/><path class="cls-25" d="M404.75,57.81c-3.36-2.25-8.09-1.42-8.14-1.42L396.4,55c.21,0,5.25-.92,9,1.61Z" transform="translate(-6.51 -4)"/><path class="cls-26" d="M400.92,85c-4.46,1.69-10.68,1.13-14.35.57-.13,1.17-.25,2.41-.35,3.67C395.76,89.53,400.92,85,400.92,85Z" transform="translate(-6.51 -4)"/><path class="cls-14" d="M394.54,125.18,387.4,397.75H343l13.09-123.81,1.65-77s2-53.39,11-62.44S394.54,125.18,394.54,125.18Z" transform="translate(-6.51 -4)"/><path class="cls-22" d="M424.18,72.8s1.39-2.83,2.64-2.43,1.53,6.08-.69,8.47S422.05,77.32,424.18,72.8Z" transform="translate(-6.51 -4)"/><path class="cls-14" d="M430.19,123.69l-4.68,274.06h47.57s1.79-217.22-3.48-239.93S430.19,123.69,430.19,123.69Z" transform="translate(-6.51 -4)"/><rect class="cls-26" x="431.5" y="164.21" width="26.32" height="20.94"/><rect class="cls-24" x="442.53" y="156.1" width="4.09" height="10.89"/><polygon class="cls-17" points="372.63 362.42 340.04 360.04 344.55 309.89 372.63 309.89 372.63 362.42"/><path class="cls-21" d="M344.33,297.62l7.53,16.27h25.36s-22.63-25.25-25.62-28.24S339.42,292.72,344.33,297.62Z" transform="translate(-6.51 -4)"/><path class="cls-13" d="M324.8,276.43A293.35,293.35,0,0,0,343,299.74c2.74-4.08,6.27-11.42,10.64-13.23a179.78,179.78,0,0,1-11.71-19.69A112.27,112.27,0,0,0,324.8,276.43Z" transform="translate(-6.51 -4)"/><polygon class="cls-17" points="466.73 365.45 434.76 366.45 434.76 312.72 466.86 312.72 466.73 365.45"/><path class="cls-3" d="M182.38,218.16c.65-1.6-.29-2.52-.58-3.73-.18-.5-3.92-11.06-3.69-10.4-3.49-10.39-8.83-28.28-2-36.34a11.33,11.33,0,0,1,2.78-2.5,14.9,14.9,0,0,1,10.31-2.46c7.07,1.15,10.7,9.59,13.39,16.85a254.69,254.69,0,0,1,6.81,25c.34,1.18.28,2.46,1.44,3.45a2.63,2.63,0,0,1,.42,3.48c-1.66,2.33-5.05,0-3.86-2.65.63-1.41,0-2.53-.15-3.75-.12-.51-2.64-11.41-2.48-10.73-3.78-15.55-9-34.26-22.07-29-9.23,2.94-9,13.67-6.78,23.93,2,9.45,8,24.81,7.8,24.31.55,1.09.45,2.46,2,3.15a2.9,2.9,0,0,1,1.39,3.62c-1.27,3.35-6,1.2-4.7-2.16Z" transform="translate(-6.51 -4)"/><path class="cls-3" d="M169.06,124.61c-2.16,10.09,6,30.45,10.48,39.63a1.28,1.28,0,0,0,2.3-1.12c-3.73-7.67-12.35-28.28-10.27-38,.93-4.35,3-7.15,7.45-8.37l-5,.35A11.57,11.57,0,0,0,169.06,124.61Z" transform="translate(-6.51 -4)"/><path class="cls-3" d="M233.75,160.86c-.55-12-1.23-25.65-8-34.38l.09,4.94c4.38,8.15,4.92,19.29,5.33,28.21,0,1.51,1.15,11.46-1.18,39.93a1.27,1.27,0,0,0,1.17,1.38h.11a1.29,1.29,0,0,0,1.27-1.18C233.52,187.36,234.38,174.06,233.75,160.86Z" transform="translate(-6.51 -4)"/><path class="cls-3" d="M237.05,203.53a8,8,0,1,1-7.94-8.45A8.21,8.21,0,0,1,237.05,203.53Z" transform="translate(-6.51 -4)"/><path class="cls-1" d="M229.11,207.89A3.84,3.84,0,1,1,233,204,3.85,3.85,0,0,1,229.11,207.89Z" transform="translate(-6.51 -4)"/><polygon class="cls-3" points="167.89 112.86 167.23 113.31 172.51 112.77 167.89 112.86"/><path class="cls-27" d="M655.82,71.32a1.1,1.1,0,0,1-.31,0,1.26,1.26,0,0,1-.93-1.55C663.64,33.34,639.28,6.42,639,6.15a1.28,1.28,0,0,1,1.88-1.74c.25.28,25.55,28.17,16.14,65.94A1.28,1.28,0,0,1,655.82,71.32Z" transform="translate(-6.51 -4)"/></svg>