<?xml version="1.0" encoding="utf-8"?>
<!-- Generator: Adobe Illustrator 22.1.0, SVG Export Plug-In . SVG Version: 6.00 Build 0)  -->
<svg version="1.1" id="Слой_1" xmlns="http://www.w3.org/2000/svg" xmlns:xlink="http://www.w3.org/1999/xlink" x="0px" y="0px"
	 viewBox="0 0 284.3 268.3" style="enable-background:new 0 0 284.3 268.3;" xml:space="preserve">
<style type="text/css">
	.st0{fill:#FF6161;}
</style>
<path class="st0" d="M197.1,180.2c-18,0-35.9-5.6-50.8-16.8c-34.9-26.5-33.6-69.1-33-77.4l21.9,1.6c-0.3,3.9-2,38.2,24.4,58.2
	c22.3,16.9,55.8,16.1,77.8-1.9c26.2-21.2,30.9-63.1,10.1-89.6c-21.2-27-58.4-23.8-60-23.6l-2.1-21.9c5.2-0.5,51.4-3.9,79.4,32
	c13.2,16.9,19.5,39.5,17.2,62.1c-2.4,23.3-13.3,44-30.8,58.2C235.8,173.8,216.4,180.2,197.1,180.2z"/>
<circle class="st0" cx="124.2" cy="85.4" r="18.4"/>
<circle class="st0" cx="197.9" cy="94.6" r="20.3"/>
<circle class="st0" cx="185.5" cy="19.8" r="18.4"/>
<path class="st0" d="M143.4,266.8l-7.5-7.3c-14-13.5-27.4-26.5-38.6-37.6c-28.8-28.5-29.2-28.9-40.7-41.1c-2.5-2.7-5.6-5.9-9.6-10.2
	c-3.9-4.1-7.7-8.4-11.5-12.5c-3.1-3.5-6.4-7.1-9.6-10.5l-0.1-0.1c-3.3-3.5-9.5-10.1-14.9-20.5c-1.4-2.7-2.7-5.4-3.6-7.7l-0.2-0.6
	c-2.4-6.9-3.9-13.6-4.6-20.6C1.9,91.4,2,84.4,2.9,77.5c0.7-5.3,2.2-18,10.3-32C19.4,34.8,28.7,25,39.4,18
	c3.5-2.3,16.6-10.3,35.3-12.7c14.9-2,26.6,0.3,31,1.4c10.4,2.5,19.7,6.8,30.3,14.2c18.8,13.1,42.8,36,69.4,66.4l0.9,1l-16.5,14.5
	l-0.9-1c-25.1-28.6-48.3-50.9-65.4-62.8c-8.3-5.8-15.1-9-22.8-10.8l-0.1,0c-2.4-0.6-11.3-2.5-22.9-1c-14.4,1.9-24.2,8-26,9.2
	c-10.7,7-16.7,15.6-19.3,20.2c-5.8,10.1-7,19.3-7.5,23.7c-0.7,5.3-0.8,10.6-0.3,15.8c0.5,5.1,1.6,10,3.3,15.2c0.4,0.9,1.3,3,2.7,5.6
	c4,7.7,8.6,12.6,11.4,15.6l0.1,0.2c3.4,3.6,6.7,7.3,9.9,10.9c3.6,4,7.4,8.2,11.1,12.1c4.1,4.3,7.1,7.6,9.7,10.2
	c11.3,12,11.3,12,40.1,40.5c9.1,9,19.7,19.3,30.9,30.1c2.6-2.5,5.3-4.9,7.9-7.4c5.1-4.8,10.2-9.5,15.3-14.3c12-12,24-24,36-36
	c12.2-12.1,24.3-24.3,36.5-36.4l15.6,15.6c-12.2,12.2-24.3,24.3-36.5,36.4c-12,12-24.1,24-36.1,36.1l-0.2,0.2
	c-5.2,4.9-10.4,9.7-15.5,14.5c-5.2,4.8-10.3,9.6-15.5,14.5L143.4,266.8z"/>
</svg>
