<svg width="63" height="60" viewBox="0 0 63 60" fill="none" xmlns="http://www.w3.org/2000/svg">
<path d="M43.6768 40.2982C39.688 40.2982 35.7214 39.0458 32.4196 36.5412C24.6859 30.615 24.974 21.0883 25.1069 19.2322L29.9599 19.59C29.8934 20.4622 29.5167 28.1327 35.3669 32.6053C40.3085 36.3846 47.732 36.2057 52.6071 32.1804C58.4129 27.4394 59.4545 18.0693 54.8452 12.1431C50.1474 6.1051 41.904 6.82071 41.5494 6.86544L41.0841 1.96794C42.2364 1.85612 52.4741 1.09578 58.6789 9.12411C61.6039 12.9035 63 17.9575 62.4903 23.0115C61.9585 28.2221 59.5431 32.8513 55.6651 36.0268C52.2526 38.8669 47.9536 40.2982 43.6768 40.2982Z" fill="white"/>
<path d="M27.5223 23.2128C29.7742 23.2128 31.5997 21.3706 31.5997 19.098C31.5997 16.8255 29.7742 14.9832 27.5223 14.9832C25.2705 14.9832 23.4449 16.8255 23.4449 19.098C23.4449 21.3706 25.2705 23.2128 27.5223 23.2128Z" fill="white"/>
<path d="M43.854 25.6951C46.3384 25.6951 48.3525 23.6626 48.3525 21.1554C48.3525 18.6482 46.3384 16.6157 43.854 16.6157C41.3696 16.6157 39.3556 18.6482 39.3556 21.1554C39.3556 23.6626 41.3696 25.6951 43.854 25.6951Z" fill="white"/>
<path d="M41.1062 8.54267C43.3581 8.54267 45.1836 6.70042 45.1836 4.42788C45.1836 2.15534 43.3581 0.31308 41.1062 0.31308C38.8543 0.31308 37.0288 2.15534 37.0288 4.42788C37.0288 6.70042 38.8543 8.54267 41.1062 8.54267Z" fill="white"/>
<path d="M31.777 59.6645L30.115 58.032C27.0127 55.013 24.0433 52.1058 21.5614 49.6235C15.1794 43.2501 15.0907 43.1606 12.5424 40.4323C11.9884 39.8285 11.3014 39.1129 10.4151 38.1513C9.55082 37.2344 8.70876 36.2728 7.86669 35.3559C7.17974 34.5732 6.44847 33.7682 5.73936 33.0078L5.7172 32.9854C4.98593 32.2027 3.61203 30.7268 2.4154 28.401C2.10517 27.7972 1.81709 27.1934 1.61765 26.6791L1.57333 26.5449C1.0415 25.0018 0.709106 23.5035 0.553989 21.9381C0.42103 20.4398 0.44319 18.8744 0.642627 17.3313C0.797745 16.1461 1.13014 13.306 2.92508 10.1752C4.29898 7.78232 6.35983 5.59074 8.73092 4.02533C9.5065 3.51098 12.4094 1.72194 16.5533 1.18523C19.8551 0.737968 22.4478 1.25232 23.4228 1.49831C25.7274 2.05739 27.7883 3.019 30.1372 4.67386C34.3032 7.60342 39.6215 12.7245 45.516 19.5229L45.7154 19.7465L42.0591 22.9892L41.8597 22.7655C36.2976 16.3697 31.1565 11.3828 27.3672 8.72157C25.528 7.42451 24.0211 6.7089 22.3148 6.30636H22.2926C21.7608 6.17218 19.7886 5.74729 17.2181 6.08273C14.0271 6.50763 11.8554 7.87177 11.4566 8.14013C9.08547 9.70554 7.75589 11.6288 7.17974 12.6575C5.89447 14.9161 5.62856 16.9735 5.51776 17.9575C5.36264 19.1427 5.34048 20.328 5.45128 21.4909C5.56208 22.6314 5.80584 23.7272 6.18255 24.89C6.27119 25.0913 6.47063 25.5609 6.78086 26.1424C7.66725 27.8643 8.68659 28.9601 9.30707 29.631L9.32923 29.6757C10.0827 30.4808 10.8139 31.3082 11.523 32.1133C12.3208 33.0078 13.1629 33.9471 13.9828 34.8192C14.8913 35.7808 15.5561 36.5188 16.1323 37.1002C18.6363 39.7838 18.6363 39.7838 25.0183 46.1573C27.0348 48.1699 29.3838 50.4733 31.8656 52.8885C32.4418 52.3295 33.0401 51.7928 33.6162 51.2337C34.7464 50.1602 35.8765 49.1092 37.0067 48.0358C39.6658 45.3522 42.325 42.6686 44.9842 39.9851C47.6877 37.2791 50.369 34.5509 53.0725 31.8449L56.5294 35.3336C53.8259 38.0619 51.1446 40.7678 48.4411 43.4737C45.7819 46.1573 43.1006 48.8408 40.4414 51.5468L40.3971 51.5915C39.2448 52.6873 38.0925 53.7607 36.9624 54.8341C35.8101 55.9075 34.6799 56.981 33.5276 58.0768L31.777 59.6645Z" fill="white"/>
</svg>
