<svg id="Слой_1" data-name="Слой 1" xmlns="http://www.w3.org/2000/svg" viewBox="0 0 911.99 681.52"><defs><style>.cls-1{fill:#95c1e9;opacity:0.5;}.cls-2{fill:#d3c7ba;}.cls-3{fill:#e5dbcf;}.cls-4{fill:#30aac1;}.cls-5{fill:#39b4c6;}.cls-6{fill:#f0e9df;}.cls-7{fill:#6d4338;}.cls-8{fill:#fff;}.cls-9{fill:#bfb1a3;}.cls-10{fill:#33211f;}.cls-11{fill:#98bff9;}.cls-12{fill:#c1b4a8;}.cls-13{fill:#94d6e5;}.cls-14{fill:#ffc5b3;}.cls-15{fill:#cff5f9;}.cls-16{fill:#432b1f;}.cls-17{fill:#709be0;}.cls-18{fill:#f2716e;}.cls-19{fill:#c1b6aa;}.cls-20{fill:#5586ce;}.cls-21{fill:#ffad97;}</style></defs><title>technics</title><polygon class="cls-1" points="761.92 580.93 832.2 540.36 801.26 522.52 730.98 563.09 761.92 580.93"/><polygon class="cls-1" points="712.74 618.3 444.69 463.54 508.25 426.84 305.5 311.16 0 487.54 202.76 603.22 333.89 527.5 600.65 681.52 712.74 618.3"/><path class="cls-1" d="M924,604.22c0,14.82-23.71,26.83-53,26.83s-53-12-53-26.83,23.71-26.82,53-26.82S924,589.41,924,604.22Z" transform="translate(-12 -10.16)"/><polygon class="cls-2" points="815.36 377.81 763.35 407.83 763.35 570.97 815.36 540.81 815.36 377.81"/><polygon class="cls-3" points="751.39 400.92 751.39 563.88 763.35 570.79 763.35 407.83 751.39 400.92"/><polygon class="cls-4" points="815.36 438.57 763.35 468.6 763.35 570.97 815.36 540.81 815.36 438.57"/><polygon class="cls-5" points="751.39 461.68 751.39 563.88 763.35 570.79 763.35 468.6 751.39 461.68"/><polygon class="cls-6" points="793.74 420.21 751.39 396.11 803.9 366.09 846.25 390.19 793.74 420.21"/><path class="cls-7" d="M834.16,390.41c0,1.45-2.21,2.62-4.93,2.62s-4.92-1.17-4.92-2.62,2.2-2.62,4.92-2.62S834.16,389,834.16,390.41Z" transform="translate(-12 -10.16)"/><path class="cls-7" d="M845.65,396.73c0,1.44-2.21,2.62-4.93,2.62s-4.93-1.18-4.93-2.62,2.21-2.62,4.93-2.62S845.65,395.28,845.65,396.73Z" transform="translate(-12 -10.16)"/><polygon class="cls-8" points="774.18 403.94 771.42 402.37 779.24 397.86 782 399.43 774.18 403.94"/><polygon class="cls-8" points="779.06 406.51 776.3 404.94 784.12 400.43 786.88 402 779.06 406.51"/><polygon class="cls-8" points="784.07 409.55 781.32 407.98 789.13 403.47 791.89 405.04 784.07 409.55"/><polygon class="cls-8" points="789.64 412.59 786.88 411.02 794.7 406.51 797.46 408.08 789.64 412.59"/><polygon class="cls-7" points="794.92 415.63 792.17 414.07 825.59 394.57 828.35 396.14 794.92 415.63"/><polygon class="cls-8" points="786.7 396.77 783.95 395.21 791.76 390.69 794.52 392.26 786.7 396.77"/><polygon class="cls-8" points="791.59 399.35 788.83 397.78 796.65 393.26 799.41 394.83 791.59 399.35"/><polygon class="cls-8" points="796.6 402.39 793.84 400.82 801.66 396.3 804.42 397.87 796.6 402.39"/><polygon class="cls-8" points="802.16 405.43 799.41 403.86 807.23 399.35 809.98 400.92 802.16 405.43"/><polygon class="cls-8" points="800.21 388.95 797.46 387.39 805.27 382.87 808.03 384.44 800.21 388.95"/><polygon class="cls-8" points="805.1 391.53 802.34 389.96 810.16 385.44 812.92 387.01 805.1 391.53"/><polygon class="cls-8" points="810.11 394.57 807.35 393 815.17 388.48 817.93 390.05 810.11 394.57"/><polygon class="cls-8" points="815.67 397.61 812.92 396.04 820.73 391.53 823.49 393.1 815.67 397.61"/><path class="cls-8" d="M832.17,390.41c0,.86-1.31,1.56-2.94,1.56s-2.94-.7-2.94-1.56,1.32-1.56,2.94-1.56S832.17,389.55,832.17,390.41Z" transform="translate(-12 -10.16)"/><path class="cls-8" d="M843.66,396.73c0,.86-1.32,1.56-2.94,1.56s-2.94-.7-2.94-1.56,1.31-1.57,2.94-1.57S843.66,395.86,843.66,396.73Z" transform="translate(-12 -10.16)"/><polygon class="cls-9" points="846.25 390.19 793.74 420.21 793.74 426.49 846.25 396.51 846.25 390.19"/><polygon class="cls-3" points="751.39 396.11 751.39 402.39 793.74 426.49 793.74 420.21 751.39 396.11"/><polygon class="cls-2" points="815.36 328.88 763.35 358.9 763.35 402.74 815.36 372.76 815.36 328.88"/><polygon class="cls-3" points="751.39 351.99 751.39 399.28 763.35 406.2 763.35 358.9 751.39 351.99"/><polygon class="cls-3" points="846.6 322 762.03 371.08 729.44 292.18 814 243.09 846.6 322"/><polygon class="cls-10" points="841.68 320.07 763.06 365.81 733.79 293.94 812.41 248.21 841.68 320.07"/><polygon class="cls-3" points="830.3 315.04 766.78 351.72 745.17 298.98 808.69 262.3 830.3 315.04"/><polygon class="cls-7" points="808.69 262.3 745.17 298.98 755.98 325.35 819.5 288.67 808.69 262.3"/><polygon class="cls-7" points="823.74 306.98 766.12 340.25 769.35 347.98 826.97 314.71 823.74 306.98"/><polygon class="cls-7" points="773.78 318.65 760.45 326.35 761.19 328.12 774.53 320.42 773.78 318.65"/><polygon class="cls-8" points="809.83 330.55 796.5 338.25 797.76 341.22 811.09 333.52 809.83 330.55"/><polygon class="cls-7" points="777.67 328.12 764.34 335.82 765.08 337.59 778.41 329.89 777.67 328.12"/><polygon class="cls-7" points="775.64 323.39 762.31 331.09 763.05 332.86 776.38 325.16 775.64 323.39"/><polygon class="cls-7" points="796.71 305.25 783.38 312.94 784.12 314.71 797.46 307.02 796.71 305.25"/><polygon class="cls-7" points="800.6 314.71 787.26 322.41 788.01 324.18 801.34 316.49 800.6 314.71"/><polygon class="cls-7" points="798.57 309.98 785.24 317.68 785.98 319.45 799.31 311.75 798.57 309.98"/><polygon class="cls-7" points="818.35 292.72 805.01 300.42 805.75 302.19 819.09 294.49 818.35 292.72"/><polygon class="cls-7" points="822.23 302.19 808.9 309.88 809.64 311.66 822.98 303.96 822.23 302.19"/><polygon class="cls-7" points="820.2 297.45 806.87 305.15 807.61 306.92 820.95 299.22 820.2 297.45"/><polygon class="cls-3" points="779.73 316.87 777.63 318.05 765.01 287.5 767.11 286.32 779.73 316.87"/><polygon class="cls-3" points="803.8 306.35 801.7 307.53 788.04 274.35 790.14 273.18 803.8 306.35"/><path class="cls-11" d="M768.48,307.61c-4.33,2.19-4,7.73-2.59,10.23.83,1.43,1.38,2.3.88,4.28-.66,2.57.14,2.48,1.31,2.75.59.14.59.63.71.91.2.44.41.66,1.2.45-.86,1.36.54.88.66,1.24.34,1,.71,1.88,2.14,1.34,1.61-.6,1.71-.93,2.87-1.4,2-.8,2.46,2.2,2.46,2.2l6.25-3.57s-3.65-9-4.59-13.33C778.78,308.15,775.06,304.27,768.48,307.61Z" transform="translate(-12 -10.16)"/><path class="cls-11" d="M790.41,294c-4.63,2.62-4.57,6.83-3.18,10s3.69,7.57,6,8.86,3.89,1.33,4.49,2.56,1.13,2.29,1.13,2.29l5.44-3.14a11.58,11.58,0,0,1-1.48-2.2c-.3-.8.89-2.6.89-5.19s-2.09-7.58-3.59-10.68S795.34,291.2,790.41,294Z" transform="translate(-12 -10.16)"/><path class="cls-11" d="M814.57,281.42c-4.94,1.94-8.46,6-5.65,12s6.47,8.6,11.56,6.28,5.64-8.08,3.94-12.94S819.73,279.39,814.57,281.42Z" transform="translate(-12 -10.16)"/><polygon class="cls-12" points="724.33 290.35 729.44 292.18 762.03 371.08 756.35 367.69 724.33 290.35"/><polygon class="cls-6" points="814 243.09 808.9 241.26 724.33 290.35 729.44 292.18 814 243.09"/><path class="cls-13" d="M891.28,307.5s5.9-2.08,13,4,12.87,34.52,13,44c.08,5,.47,28.19-13,25.63-9.6-1.83-7.3-40.52-7.3-40.52Z" transform="translate(-12 -10.16)"/><path class="cls-14" d="M881.07,593.41c-5.89-2.94-11.49-6.54-9.7-9.9.81-1.52,2.69-2.19,4.5-2.49,5.43,1.78,8.14,3,8.14,3s-.57-31.53-2.89-44.59C880.36,535.12,901,535,901,535c.73,3,1.38,29.51,0,45.65a47.39,47.39,0,0,0,.22,11.56c-1.4.61-4.29,1.87-6.45,2.85C891.78,596.36,887,596.36,881.07,593.41Z" transform="translate(-12 -10.16)"/><path class="cls-10" d="M901.42,600.75c-2,4.69-6.51,4.25-15.69,1a79.14,79.14,0,0,1-20.65-10.53c-5.79-4.28-5.85-4.85-6.61-7.75-1.07-4.06,4.85-6.33,14.69-3.27,1,.3,1.87.59,2.71.87-1.81.3-3.69,1-4.5,2.49-1.79,3.36,3.81,7,9.7,9.9s10.71,3,13.65,1.61c2.16-1,5-2.24,6.45-2.85C901.77,596.11,902.6,597.93,901.42,600.75Z" transform="translate(-12 -10.16)"/><path class="cls-10" d="M872.77,617.37c-2,4.69-6.51,4.25-15.68,1-8.15-2.93-14.86-6.24-20.65-10.53s-5.85-4.85-6.62-7.75c-1.07-4,4.85-6.33,14.7-3.27,1,.3,1.86.59,2.7.87-1.81.3-3.68,1-4.49,2.49-1.79,3.36,3.8,7,9.69,9.91s10.71,2.94,13.66,1.6c2.15-1,5-2.24,6.45-2.84C873.13,612.73,874,614.56,872.77,617.37Z" transform="translate(-12 -10.16)"/><path class="cls-14" d="M842.73,600.13c.81-1.52,2.68-2.19,4.49-2.49,5.44,1.79,8.15,3,8.15,3s-1.45-25.35-3.12-44.88c-2.64-17.12-5.44-37.92-5.23-48.75.18-9.58-1.17-40.11,1.62-61.91a148.37,148.37,0,0,0,16.56,3.22c14.08,2,29.76,3,43.66-1.2.22,1.08.44,2.17.6,3.3.86,6.39-2.71,13.74-3.81,22.77-1.39,11.42-.89,20.59-1.69,30-2.2,26.06-2.27,45.61-2.27,45.61s-8.51,8.46-19.25,1.73c-2.34-11-2.15-38.94-2.47-45s.21-38.24.21-38.24-7.74,37.85-7.49,45.46c.36,10.85-1.26,27.54-.5,37.84h0c.62,13.13,1.09,35.27.11,46.66a47.38,47.38,0,0,0,.23,11.57c-1.4.6-4.3,1.86-6.45,2.84-3,1.34-7.77,1.34-13.66-1.6S840.94,603.49,842.73,600.13Z" transform="translate(-12 -10.16)"/><path class="cls-14" d="M870.47,259.08c-2.23,1.54-10.44,3.46-12.85,21.73-1.61,12.28,2.46,17.76,6,21,1.46,1.33,7.14,1.56,7.14,1.56L870.47,317s8,3.18,15.71,0l7.7-3.17s-3-5.18-2.51-14.15c.63-11.12,4.57-27,1.78-32.86C888.11,256.19,876.5,254.88,870.47,259.08Z" transform="translate(-12 -10.16)"/><path class="cls-15" d="M870.48,313.48s-9.25,3.85-12.14,10.17-13.18,23.92-8.64,33.61c9.28,19.82,3.13,33.77,1.83,37.09C834.38,438.52,838.1,500,838.1,500s12.71,22.29,35.27,14.84S913,493.4,913,493.4,914.69,423,909.59,410c-7.57-19.42-6-30-5.4-34.49,2-16.12,1.24-21.51-.39-34.25s-9.92-27.4-9.92-27.4Z" transform="translate(-12 -10.16)"/><path class="cls-13" d="M896,312.36s-1.19,3.85-9,6.34a28.4,28.4,0,0,1-22.58-1.78c-.05-5.06,6.15-7.33,6.15-7.33a22.82,22.82,0,0,0,14.92,0l7.9-2.83Z" transform="translate(-12 -10.16)"/><path class="cls-10" d="M877,297.94c10,.84,18-2.57,22-13.7a78.16,78.16,0,0,0,3.36-14c-2-11.2-10.07-15.31-17.87-17-19.58-4.14-28.64,8.39-27.43,21.28.58,6.28,5.73,8.15,10.32,12.94C870.51,290.76,872.7,294,877,297.94Z" transform="translate(-12 -10.16)"/><path class="cls-10" d="M861,268.46s4.32,21.71,3.45,29.6A67.46,67.46,0,0,1,861,312.79s12.09,9.1,30.42,1.54c16.52-6.81,17.06-16.55,16.16-30.57a38.47,38.47,0,0,0-9.06-22.57Z" transform="translate(-12 -10.16)"/><path class="cls-14" d="M816.15,405.53s-11.28,2.3-12.78,2.29a4.78,4.78,0,0,0-2.79,1.17s-1.7-.35-2.4.34a12.87,12.87,0,0,0-1.59,2.45,42.29,42.29,0,0,0-2.2,3.63c-.76,1.52-.46,2.55,1.26,1.88,1.31-.52,2.79-3.05,2.79-3.05a25.21,25.21,0,0,0,4.09,2c1.3.46,2,1.41,9.65,1,4.18-.21,9.16-5.1,9.5-5.65S816.15,405.53,816.15,405.53Z" transform="translate(-12 -10.16)"/><path class="cls-13" d="M862.09,321.44C848.48,326,839.1,352,836,360.13c-3,4.63-5.35,12.05-12,21.3-6.13,8.48-17.29,23.1-17.29,23.1s-.06,4,4.78,7.11a15.2,15.2,0,0,0,10,2.26s19.16-14.15,31.35-34.19c5.35-8.8,16.59-26.23,17.84-36.32C872,331.68,866.86,319.86,862.09,321.44Z" transform="translate(-12 -10.16)"/><polygon class="cls-9" points="610.56 224.1 608.96 223.19 606.73 224.1 609.36 226.26 610.56 224.1"/><path class="cls-9" d="M618,266.32l-15.53,9c-2.48,1.43-4.51-.1-4.51-3.41V251.16c0-3.31,2-7.19,4.51-8.62l15.53-9c2.49-1.43,4.52.11,4.52,3.42v20.7C622.56,261,620.53,264.88,618,266.32Z" transform="translate(-12 -10.16)"/><polygon class="cls-9" points="589.36 266.37 587.65 265.35 587.65 263.92 590.38 264.89 589.36 266.37"/><path class="cls-2" d="M620,267.39l-15.53,9c-2.48,1.43-4.51-.11-4.51-3.42v-20.7c0-3.31,2-7.19,4.51-8.62l15.53-9c2.48-1.43,4.51.1,4.51,3.41v20.71C624.49,262.08,622.46,266,620,267.39Z" transform="translate(-12 -10.16)"/><path class="cls-16" d="M604.76,272.75a2.86,2.86,0,0,1-1.19,2.28c-.66.38-1.19,0-1.19-.91a2.85,2.85,0,0,1,1.19-2.28C604.23,271.46,604.76,271.87,604.76,272.75Z" transform="translate(-12 -10.16)"/><path class="cls-7" d="M604.64,273.24a1.76,1.76,0,0,1-.73,1.4c-.41.23-.74,0-.74-.56a1.74,1.74,0,0,1,.74-1.4C604.31,272.45,604.64,272.69,604.64,273.24Z" transform="translate(-12 -10.16)"/><path class="cls-16" d="M604.76,247.71a2.85,2.85,0,0,1-1.19,2.28c-.66.38-1.19,0-1.19-.9a2.85,2.85,0,0,1,1.19-2.28C604.23,246.43,604.76,246.83,604.76,247.71Z" transform="translate(-12 -10.16)"/><path class="cls-7" d="M604.64,248.2a1.79,1.79,0,0,1-.73,1.41c-.41.23-.74,0-.74-.56a1.77,1.77,0,0,1,.74-1.41C604.31,247.41,604.64,247.66,604.64,248.2Z" transform="translate(-12 -10.16)"/><path class="cls-16" d="M622.56,262.36a2.86,2.86,0,0,1-1.2,2.28c-.66.38-1.19,0-1.19-.9a2.88,2.88,0,0,1,1.19-2.29C622,261.07,622.56,261.48,622.56,262.36Z" transform="translate(-12 -10.16)"/><path class="cls-7" d="M622.43,262.85a1.76,1.76,0,0,1-.73,1.4c-.41.24-.74,0-.74-.55a1.76,1.76,0,0,1,.74-1.41C622.1,262.06,622.43,262.31,622.43,262.85Z" transform="translate(-12 -10.16)"/><path class="cls-16" d="M622.56,237.32a2.86,2.86,0,0,1-1.2,2.28c-.66.38-1.19,0-1.19-.9a2.85,2.85,0,0,1,1.19-2.28C622,236,622.56,236.44,622.56,237.32Z" transform="translate(-12 -10.16)"/><path class="cls-7" d="M622.43,237.81a1.79,1.79,0,0,1-.73,1.41c-.41.23-.74,0-.74-.56a1.74,1.74,0,0,1,.74-1.4C622.1,237,622.43,237.27,622.43,237.81Z" transform="translate(-12 -10.16)"/><path class="cls-9" d="M670.87,276.14l-51.63-29.81-15.4,8.9L655.47,285c3.67,2.12,10.13,1.85,14.37-.59S674.54,278.26,670.87,276.14Z" transform="translate(-12 -10.16)"/><rect class="cls-9" x="658.15" y="265.95" width="3.15" height="4.14"/><path class="cls-3" d="M670.87,273l-51.63-29.81-15.4,8.9,51.63,29.8c3.67,2.12,10.13,1.85,14.37-.59S674.54,275.12,670.87,273Z" transform="translate(-12 -10.16)"/><path class="cls-9" d="M603.84,252.09V264.5s3.68-.41,7.41-.92c2.53-.35,6.55-.29,8,.52L655.47,285v-3.14Z" transform="translate(-12 -10.16)"/><path class="cls-2" d="M669,276.89c0,1.92-2.92,3.47-6.52,3.47s-6.51-1.55-6.51-3.47,2.92-3.46,6.51-3.46S669,275,669,276.89Z" transform="translate(-12 -10.16)"/><polygon class="cls-2" points="655.53 236.17 644.13 265.95 656.98 266.73 671.05 228.08 655.53 236.17"/><polygon class="cls-9" points="762.67 58.1 619.88 141.03 619.88 280.26 762.67 197.72 762.67 58.1"/><polygon class="cls-10" points="753.11 193.83 630.31 264.43 630.31 145.38 753.11 74.36 753.11 193.83"/><polygon class="cls-3" points="746.9 189.22 728.98 199.52 728.98 110.94 746.9 100.58 746.9 189.22"/><polygon class="cls-3" points="746.9 92.96 728.98 103.26 728.98 98 746.9 87.64 746.9 92.96"/><polygon class="cls-2" points="619.88 280.26 614.2 277.33 614.2 138.11 619.88 141.03 619.88 280.26"/><polygon class="cls-3" points="757 55.18 762.67 58.1 619.88 141.03 614.2 138.11 757 55.18"/><polygon class="cls-3" points="665.81 144 665.98 148.61 640.1 163.59 639.92 158.99 665.81 144"/><polygon class="cls-3" points="665.55 133.46 665.72 138.25 639.84 153.8 639.66 149.01 665.55 133.46"/><path class="cls-11" d="M683.78,166.62c1.86-1.53,3.45-1.81,3.27,3.65-.14,4.32-2.59,11.88-4.31,19.1a227.24,227.24,0,0,0-4.15,32.87c-.32,11-2.79,15.08-8.66,22.16s-10.35,9.15-14,9.29-2.69-14.28-.64-29.3c1.62-11.85,4.23-29,13.2-41.12C675.21,174.2,677.67,171.66,683.78,166.62Z" transform="translate(-12 -10.16)"/><path class="cls-11" d="M699.3,157.86c-1.86.61-3.45,2.17-3.27,7.43.14,4.15,2.59,8.87,4.31,14.11,1.11,3.38,3.83,17.44,4.15,28.08s2.79,11.87,8.66,12.16,10.35-2.79,14-6.9,2.69-17.38.64-30c-1.62-10-4.23-24.17-13.2-25.88C707.86,155.55,705.41,155.84,699.3,157.86Z" transform="translate(-12 -10.16)"/><path class="cls-17" d="M690.06,128c0,5,.13,28.63,0,32.77a21,21,0,0,1-3,9.63c-.9,1.71-8.18,10.82-11.91,19.78-6.1,14.64-6.1,35.5-6.1,35.5s3-25.5,10.52-39.31c4.48-8.18,9.42-12.52,11.06-16.94S693,163,693,156.87V126.31Z" transform="translate(-12 -10.16)"/><path class="cls-17" d="M693.13,126.25c0,5-.12,28.78,0,32.77.15,4.45,2.08,5.52,3,6.2s8.17,1.38,11.9,6c6.11,7.59,6.11,28.46,6.11,28.46s-3-22.08-10.53-27.16c-4.48-3-9.42-1.65-11.06-4.17s-2.38-3.69-2.38-9.84V128Z" transform="translate(-12 -10.16)"/><polygon class="cls-4" points="434.56 102.04 275.63 10.5 210.4 128.25 406.57 147.2 434.56 102.04"/><path class="cls-4" d="M211.73,587.52,48.52,493.57S141,372.23,142.68,370s82.4,10.51,82.4,10.51Z" transform="translate(-12 -10.16)"/><path class="cls-4" d="M335.92,327.64,48.52,493.57V302c0-105.82,64.34-228.75,143.7-274.57h0c79.36-45.82,143.7,2.82,143.7,108.64Z" transform="translate(-12 -10.16)"/><path class="cls-5" d="M499.13,421.59,211.73,587.52V395.92c0-105.82,64.33-228.75,143.7-274.57h0c79.36-45.82,143.7,2.82,143.7,108.64Z" transform="translate(-12 -10.16)"/><path class="cls-3" d="M308.45,93.48h0c31.88-18.41,61.32-21.54,85.15-11.88-25.09-14-57.61-12.53-93.17,8h0c-79.36,45.82-143.7,168.75-143.7,274.57v191.6l8,4.71V368.05C164.75,262.23,229.09,139.3,308.45,93.48Z" transform="translate(-12 -10.16)"/><path class="cls-3" d="M358.14,157.91c-61.53,35.53-111.41,130.83-111.41,212.87S296.61,490.52,358.14,455s111.4-130.83,111.4-212.87S419.66,122.39,358.14,157.91Z" transform="translate(-12 -10.16)"/><path class="cls-17" d="M264.08,384.94c-2.07,1.19-3.74,4.39-3.74,7.14s1.67,4,3.74,2.83,3.74-4.39,3.74-7.14S266.14,383.74,264.08,384.94Z" transform="translate(-12 -10.16)"/><path class="cls-17" d="M458.48,273.21c-2.07,1.19-3.74,4.39-3.74,7.15s1.67,4,3.74,2.83,3.74-4.4,3.74-7.15S460.54,272,458.48,273.21Z" transform="translate(-12 -10.16)"/><path class="cls-17" d="M261.41,362c-2.07,1.2-3.74,4.4-3.74,7.15s1.67,4,3.74,2.83,3.74-4.39,3.74-7.15S263.47,360.76,261.41,362Z" transform="translate(-12 -10.16)"/><path class="cls-17" d="M264.08,337.73c-2.07,1.19-3.74,4.39-3.74,7.15s1.67,4,3.74,2.82,3.74-4.39,3.74-7.14S266.14,336.54,264.08,337.73Z" transform="translate(-12 -10.16)"/><path class="cls-17" d="M460,225.17c-2.07,1.19-3.74,4.39-3.74,7.14s1.67,4,3.74,2.83,3.74-4.39,3.74-7.14S462,224,460,225.17Z" transform="translate(-12 -10.16)"/><path class="cls-17" d="M460.17,246.88c-2.07,1.19-3.74,4.39-3.74,7.15s1.67,4,3.74,2.82,3.74-4.39,3.74-7.14S462.23,245.69,460.17,246.88Z" transform="translate(-12 -10.16)"/><path class="cls-17" d="M268.89,313c-2.07,1.2-3.74,4.4-3.74,7.15s1.67,4,3.74,2.83,3.74-4.39,3.74-7.15S271,311.76,268.89,313Z" transform="translate(-12 -10.16)"/><path class="cls-17" d="M456.43,204.09c-2.07,1.19-3.74,4.39-3.74,7.15s1.67,4,3.74,2.82,3.74-4.39,3.74-7.14S458.49,202.9,456.43,204.09Z" transform="translate(-12 -10.16)"/><path class="cls-18" d="M315.2,211.62c-2.06,1.2-3.74,4.4-3.74,7.15s1.68,4,3.74,2.83,3.74-4.4,3.74-7.15S317.27,210.43,315.2,211.62Z" transform="translate(-12 -10.16)"/><path class="cls-18" d="M335.69,187.57c-2.07,1.2-3.74,4.4-3.74,7.15s1.67,4,3.74,2.83,3.74-4.39,3.74-7.15S337.76,186.38,335.69,187.57Z" transform="translate(-12 -10.16)"/><path class="cls-18" d="M358.14,169c-2.07,1.19-3.74,4.39-3.74,7.15s1.67,4,3.74,2.83,3.74-4.4,3.74-7.15S360.2,167.83,358.14,169Z" transform="translate(-12 -10.16)"/><path class="cls-18" d="M407.82,157.81c-2.07,1.19-3.74,4.39-3.74,7.15s1.67,4,3.74,2.82,3.74-4.39,3.74-7.14S409.88,156.62,407.82,157.81Z" transform="translate(-12 -10.16)"/><path class="cls-18" d="M383.9,159.31c-2.07,1.19-3.74,4.39-3.74,7.15s1.67,4,3.74,2.82,3.74-4.39,3.74-7.14S386,158.12,383.9,159.31Z" transform="translate(-12 -10.16)"/><path class="cls-12" d="M364.12,191.93c-47.43,27.39-85.89,100.87-85.89,164.12s38.46,92.32,85.89,64.93S450,320.12,450,256.86,411.56,164.54,364.12,191.93Z" transform="translate(-12 -10.16)"/><path class="cls-8" d="M330,433.94a46.29,46.29,0,0,1-23.4-6.11c-19.71-11.39-31-37.55-31-71.79,0-64,39.13-138.65,87.22-166.42h0c21.52-12.43,42.43-14,58.88-4.54,19.72,11.39,31,37.55,31,71.78,0,64-39.13,138.66-87.23,166.43C353.2,430.37,341.13,433.94,330,433.94Zm68.28-249.61c-10.23,0-21.38,3.32-32.8,9.91h0c-46.63,26.92-84.56,99.5-84.56,161.8,0,32.28,10.34,56.75,28.36,67.16,14.73,8.5,33.74,6.89,53.52-4.53,46.63-26.93,84.56-99.51,84.56-161.81,0-32.27-10.33-56.74-28.35-67.15A41,41,0,0,0,398.26,184.33Z" transform="translate(-12 -10.16)"/><polygon class="cls-3" points="152.75 445.77 36.52 379.24 36.52 371.69 152.75 438.23 152.75 445.77"/><polygon class="cls-3" points="152.75 507.07 36.52 440.54 36.52 432.99 152.75 499.53 152.75 507.07"/><polygon class="cls-2" points="228.2 430.72 211.9 440.13 211.9 431.88 228.2 422.47 228.2 430.72"/><polygon class="cls-2" points="228.2 448.01 211.9 457.42 211.9 449.17 228.2 439.76 228.2 448.01"/><polygon class="cls-2" points="228.2 465.67 211.9 475.08 211.9 466.83 228.2 457.42 228.2 465.67"/><polygon class="cls-2" points="228.2 482.95 211.9 492.37 211.9 484.12 228.2 474.7 228.2 482.95"/><polygon class="cls-4" points="676.6 556.24 602.26 599.16 602.26 661.82 676.6 618.97 676.6 556.24"/><polygon class="cls-5" points="342.58 449.09 342.58 511.75 602.26 661.82 602.26 599.16 342.58 449.09"/><polygon class="cls-6" points="602.26 540.51 301.78 366.86 413.52 302.35 714 476 602.26 540.51"/><polygon class="cls-2" points="714 476 602.26 540.51 602.26 556.86 714 492.45 714 476"/><polygon class="cls-3" points="301.78 366.86 301.78 383.21 602.26 556.86 602.26 540.51 301.78 366.86"/><polygon class="cls-2" points="676.6 519.9 602.26 562.82 602.26 625.48 676.6 582.63 676.6 519.9"/><polygon class="cls-3" points="342.58 412.75 342.58 475.41 602.26 625.48 602.26 562.82 342.58 412.75"/><polygon class="cls-2" points="301.78 383.21 317.16 403.78 602.26 568.5 602.26 556.86 301.78 383.21"/><polygon class="cls-19" points="714 492.45 602.26 556.86 602.26 568.5 699.01 511.79 714 492.45"/><path class="cls-8" d="M383.9,321s-26.43,15.14-35.78,24.77-10.75,18.45-10.75,18.45l44.7,27.86L448,346.88s-23.84-20.83-38.46-23.5A134.28,134.28,0,0,0,383.9,321Z" transform="translate(-12 -10.16)"/><path class="cls-14" d="M539.94,397.77c1,.34,10,5,15.37,10.35s7,13,7,13l-30.06-9Z" transform="translate(-12 -10.16)"/><path class="cls-17" d="M436.12,352.44s9.22-4.19,21.41-.43,28.47,13.67,33.82,16.12,29.22,15.95,35.07,19.47c9.4,5.66,21.43,11.45,21.43,11.45l-10.31,11.5Z" transform="translate(-12 -10.16)"/><path class="cls-20" d="M594.56,520s4.34,6.19,12.58-3.48,10.72-14.27,5.54-18.73S593.35,507.23,594.56,520Z" transform="translate(-12 -10.16)"/><path class="cls-20" d="M639,490.75s4.34,6.19,12.58-3.48,10.71-14.28,5.54-18.73S637.81,478,639,490.75Z" transform="translate(-12 -10.16)"/><path class="cls-8" d="M592.44,508.65a106.62,106.62,0,0,1,7.62,9c1.63,2.15,6.23,5.36,8.86,5.25s5.34-2.23,9.35-4.78c8-5.1,10.25-7.8,14.92-13.48s8.52-10.46,3.12-11.35c-6.27-1-11.61,3.4-17.81,6-6.91,2.89-15.59-3.8-15.59-3.8Z" transform="translate(-12 -10.16)"/><path class="cls-8" d="M638.94,480.82a106.62,106.62,0,0,1,7.62,9c1.63,2.15,6.23,5.37,8.86,5.25s5.35-2.23,9.35-4.78c8-5.1,10.25-7.8,14.92-13.48s8.52-10.46,3.12-11.35c-6.27-1-11.61,3.41-17.81,6-6.91,2.9-15.59-3.8-15.59-3.8Z" transform="translate(-12 -10.16)"/><path class="cls-17" d="M587.41,429c-24.18-12.57-79-38.28-83.51-35.56l-40.59,37.63c13.4,10.06,36.48,26.41,51.25,31.54,21.82,7.57,37.85,15.14,53.44,28.06,9.1,7.53,20.87,15.05,29.13,20a37.66,37.66,0,0,1,2.44-4.74c5.53-9,13.11-8.18,13.11-8.18s-36.41-31.63-46.89-38a282.5,282.5,0,0,1-26.1-17.81s2.44.47,14.33,6.3c4.64,2.28,31.67,15.88,37.17,18.84,10.56,5.68,47.83,23.67,47.83,23.67s2.53-7.71,5.31-12.07c6.07-9.54,13.88-9.54,13.88-9.54S608.22,439.85,587.41,429Z" transform="translate(-12 -10.16)"/><path class="cls-20" d="M514.56,462.63c-14.77-5.13-37.85-21.48-51.25-31.54L460,434.2s12.28,12.64,40.33,28.83c11.24,6.49,33,13.27,50,23.79,11.43,7.06,22.5,17.16,31.75,23.58,11.34,7.87,12.5,9.6,12.5,9.6a31.5,31.5,0,0,1,2.57-9.29c-8.26-5-20-12.49-29.13-20C552.41,477.77,536.38,470.2,514.56,462.63Z" transform="translate(-12 -10.16)"/><path class="cls-11" d="M415.62,363s-16.21,10.63-13.6,21.79,11.31,26.44,30.94,35.61S475.65,448,475.65,448s-3-11.73,12.36-23.56a247.46,247.46,0,0,1,38.52-23.95s-47.3-28.86-52.33-32.54c-11.29-8.26-18.12-12.59-21.09-13.58-19.58-6.58-24.31,2.95-24.31,2.95Z" transform="translate(-12 -10.16)"/><path class="cls-21" d="M392.67,349.24s5.07,8.95,9.07,10.69a26.53,26.53,0,0,1,10.11,7.87s21.53,1.81,26.66-.86c.34-4.85-2.2-12.17-2.2-12.17s-7.6.54-9.77-1.1c-7.29-5.52-16.17-12.53-16.17-12.53Z" transform="translate(-12 -10.16)"/><path class="cls-14" d="M383.4,342.64c-.8-7.86,5.65-21.35,21.59-18,10.06,2.14,13,3.11,16.91,10.11,2.43,4.29,5,14.16,1.5,18.9-2.8,3.84-13.58,9.31-22.17,7.08C391.57,358.26,384,348.74,383.4,342.64Z" transform="translate(-12 -10.16)"/><path class="cls-16" d="M393.59,329s2.78,7.24,3.12,11a48.24,48.24,0,0,1,0,7.56l-4.14-3a33.51,33.51,0,0,0,3.34,10.92c1,2,5,4.11,8.63,5.77.43.68.61,5.65.61,5.65a12.08,12.08,0,0,0-5.68-3.41,35.28,35.28,0,0,1-15-7.35c-5.8-4.84-8.74-13.71-8.8-19.29-.11-11.1,5.44-16.09,7.7-17.78,11.57-8.69,15-7.35,19.48-8.8s5.9-4.45,5.9-4.45a12.12,12.12,0,0,1-1,7.18c3-.29,4-.2,7.77,1.06s4.35,3.27,4.35,3.27l-3.58.16a28.66,28.66,0,0,1,6.3,7.41c2.21,4.1-.67,9.85-.67,9.85s-7.51-7-11-7.08C409.46,327.67,403,332.19,393.59,329Z" transform="translate(-12 -10.16)"/><path class="cls-14" d="M466.13,446.57A57.47,57.47,0,0,0,478.82,458c7.68,5,16.37,11,21,9.32s3.33-12.77-4.12-19-24.69-11.72-24.69-11.72Z" transform="translate(-12 -10.16)"/><path class="cls-17" d="M480.38,436.57c-14.4-9.5-32.08-24.38-38.7-29.7-16.8-13.5-14.27-27-37.94-31.86-4.75,2.94-7.86,15.83-2.52,25.63,6.46,11.83,10.11,15.32,34.29,32.29,9.51,6.67,21.93,14,32.43,19.94C469.6,445.1,472.71,440.59,480.38,436.57Z" transform="translate(-12 -10.16)"/><path class="cls-17" d="M410.45,366.32l-2.05,2.84s12.41-.38,19.09,0,13.58,0,13.58,0-.88-7.43-2.44-11.12a11.62,11.62,0,0,0-4.12-5l-3.68,1.85s2.45.71,4.79,5a43,43,0,0,1,1.89,5.9s-8.91-.48-15.17-.51A78.16,78.16,0,0,0,410.45,366.32Z" transform="translate(-12 -10.16)"/><path class="cls-20" d="M539.69,441.94a34.18,34.18,0,0,1-7.43-10.85c-2.56-6.32-3.68-11.85,0-12.2s4.12,3.66,5.46,6.33,5.34,7.56,15.59,11.35,32.26,18.24,51.62,26.95c16,7.21,37.31,18.7,37.31,18.7L639,490.75s-34.44-17.43-47.83-23.67S539.69,441.94,539.69,441.94Z" transform="translate(-12 -10.16)"/></svg>